<svg xmlns="http://www.w3.org/2000/svg" width="500" height="400" viewBox="0 0 500 400">
  <!-- Background -->
  <rect width="500" height="400" fill="#1a1a1a"/>

  <!-- Decorative border -->
  <rect x="10" y="10" width="480" height="380" rx="12" fill="none" stroke="#d7bfa4" stroke-width="1" opacity="0.2"/>

  <!-- Central shield icon representing QSE -->
  <path d="M250 80 L330 120 L330 200 C330 260 250 310 250 310 C250 310 170 260 170 200 L170 120 Z" fill="#2d2d2d" stroke="#d7bfa4" stroke-width="2" opacity="0.8"/>

  <!-- Q inside shield -->
  <circle cx="220" cy="170" r="25" fill="none" stroke="#d7bfa4" stroke-width="3" opacity="0.6"/>
  <line x1="235" y1="185" x2="250" y2="200" stroke="#d7bfa4" stroke-width="3" opacity="0.6"/>

  <!-- S inside shield -->
  <path d="M255 155 C270 155 275 165 265 170 C255 175 265 185 275 185" fill="none" stroke="#d7bfa4" stroke-width="3" opacity="0.6"/>

  <!-- E inside shield -->
  <path d="M280 205 L295 205 M280 215 L290 215 M280 225 L295 225 M280 205 L280 225" fill="none" stroke="#d7bfa4" stroke-width="2" opacity="0.5"/>

  <!-- Checkmark -->
  <circle cx="250" cy="250" r="20" fill="#d7bfa4" opacity="0.2"/>
  <polyline points="240,250 248,258 265,240" fill="none" stroke="#d7bfa4" stroke-width="3" opacity="0.8"/>

  <!-- Decorative elements -->
  <circle cx="100" cy="100" r="40" fill="#d7bfa4" opacity="0.05"/>
  <circle cx="400" cy="300" r="50" fill="#d7bfa4" opacity="0.05"/>

  <!-- Label -->
  <text x="250" y="360" font-family="Inter, sans-serif" font-size="12" fill="#d7bfa4" text-anchor="middle" opacity="0.5">Conseil QSE</text>
</svg>
