<?xml version="1.0" encoding="UTF-8"?>
<svg id="Calque_2" data-name="Calque 2" xmlns="http://www.w3.org/2000/svg" viewBox="0 0 312.16 178.14">
  <defs>
    <style>
      .cls-1 {
        fill: #d7bfa4;
      }
    </style>
  </defs>
  <g id="Layer_1" data-name="Layer 1">
    <g id="Logo_Laanfo_c_m" data-name="Logo Laanfo c&amp;amp;m">
      <path class="cls-1" d="M167.31,0c0,.38.01.76.01,1.14,0,33.46,0,66.91,0,100.37,0,1.69.2,1.51-1.48,1.52-.83,0-1.66.01-2.5,0-.84-.01-.84-.02-.86-.9,0-.17,0-.35,0-.52,0-33.49,0-66.98,0-100.47,0-.38.02-.76.03-1.14C164.12,0,165.71,0,167.31,0Z"/>
      <path class="cls-1" d="M158.78,0c0,.45-.02.9-.02,1.35,0,24.09,0,48.18,0,72.28,0,1.43.14,1.48-1.49,1.46-.87,0-1.73.01-2.6,0-.78-.02-.83-.09-.87-.83-.01-.28,0-.55,0-.83,0-24.02,0-48.05,0-72.07,0-.45,0-.9-.01-1.35,1.66,0,3.33,0,4.99,0Z"/>
      <path class="cls-1" d="M176.05,0c0,12.27,0,24.53-.01,36.8,0,1.67.19,1.48-1.5,1.49-.94,0-1.87-.01-2.81,0-.49.01-.7-.18-.67-.67.02-.28,0-.55,0-.83,0-12.27,0-24.53,0-36.8h4.99Z"/>
      <path class="cls-1" d="M0,171.48c1.2.2,1.82-.37,1.91-1.82.19-3.25.17-6.51.2-9.76,0-1.15-.05-1.22-1.14-1.68-.15-.06-.35-.05-.45-.22.55-.25,2.24-.3,2.67-.09.37.18.55.53.71.87,1.42,2.97,2.81,5.95,4.21,8.92.23.49.41,1.01.82,1.53.57-.83.86-1.71,1.23-2.54,1.17-2.62,2.33-5.25,3.46-7.89.31-.74.76-1.1,1.58-1.02.63.06,1.28.01,2.12.01-.42.49-.8.35-1.09.44-.76.25-1.03.52-1.05,1.33-.02.66-.07,1.33.04,1.97.16.97.15,1.93.15,2.9,0,1.87.27,3.73.24,5.6-.02,1.01.34,1.33,1.33,1.47.15.02.36-.03.4.21-.79.22-3.89.23-4.74.01.06-.3.31-.2.48-.24.82-.18,1.13-.43,1.02-1.27-.28-2.17-.04-4.36-.3-6.53-.13-1.06-.02-2.14-.02-3.21-.39-.06-.39.21-.45.37-1.41,3.27-2.82,6.55-4.22,9.82-.07.16-.14.32-.22.47-.12.2-.15.5-.45.52-.31.02-.37-.28-.47-.48-.39-.77-.77-1.55-1.14-2.33-1.05-2.22-2.08-4.46-3.14-6.67-.25-.52-.37-1.12-.77-1.58-.36.12-.2.41-.21.61-.03,1.98-.03,3.95-.05,5.93,0,.62.02,1.24-.13,1.86-.14.56.05,1.1.19,1.64.1.4.44.59.79.77.24.12.57,0,.8.38-.74.21-1.45.07-2.14.1-.73.03-1.46.02-2.18.02,0-.14,0-.28,0-.42Z"/>
      <path class="cls-1" d="M51.19,178.14c-.12-.26-.41-.23-.62-.33-1.63-.8-1.97-2.54-.75-3.99.4-.47.85-.89,1.26-1.3-.05-.18-.16-.19-.25-.23-1.21-.54-1.52-1.72-.67-2.75.28-.34.69-.57.98-.92-.07-.3-.28-.34-.4-.44-.99-.74-1.19-1.77-.97-2.88.23-1.13,1.07-1.74,2.09-2.11,1.06-.38,2.12-.24,3.14.18.45.18.84.21,1.28-.02.33-.17.72-.24,1.08-.33.24-.06.51-.11.64.16.12.26.12.56,0,.81-.13.27-.42.2-.65.15-.4-.08-.79-.29-1.23-.09.17.55.48,1.05.5,1.66.03,1.26-.66,2.4-1.85,2.84-.74.27-1.48.48-2.32.27-.98-.25-1.53.27-1.5,1.26.01.52.26.84.76.97.57.15,1.15.21,1.74.22.93.02,1.86-.07,2.79.17,1.48.39,2.1,1.39,1.72,2.88-.32,1.28-1.09,2.23-2.22,2.87-.65.36-1.36.63-2.04.94h-2.5ZM53.44,172.51c-.53.11-1.17-.17-1.75.18-.93.57-1.22,1.41-1.16,2.47.05.93.44,1.59,1.29,1.94,1.25.52,2.48.42,3.67-.22.61-.33,1.05-.82,1.22-1.48.32-1.23.25-2.45-1.53-2.79-.55-.11-1.1-.06-1.73-.11ZM51.19,165.4c-.03,1.69.57,2.63,1.92,3.02.73.21,1.39-.05,1.76-.68.88-1.51.11-3.63-1.53-4.22-1.03-.37-1.98.19-2.14,1.27-.03.2,0,.41,0,.62Z"/>
      <path class="cls-1" d="M156.18,110.52c-48.65,0-97.3,0-145.96,0-1.93,0-1.65.28-1.68-1.73,0-.1,0-.21,0-.31-.04-.48.16-.71.66-.68.24.02.49,0,.73,0,97.51,0,195.02,0,292.54,0,1.49,0,1.37-.13,1.37,1.32,0,1.54.15,1.41-1.38,1.41-48.76,0-97.51,0-146.27,0Z"/>
      <path class="cls-1" d="M71.01,146.54c-3.16-.04-6.31-.1-9.47-.01-.24,0-.49,0-.73,0-.13,0-.29-.02-.32-.19-.04-.22.11-.33.28-.36.31-.04.62-.04.93-.06,1.65-.08,2.08-.7,1.55-2.29-.12-.36-.25-.72-.42-1.06-1.55-3.21-3.13-6.42-4.67-9.64-.27-.57-.59-.83-1.25-.82-2.25.04-4.51.03-6.76,0-.52,0-.82.15-1.03.65-1.15,2.74-2.34,5.47-3.51,8.21-.15.35-.25.72-.34,1.09-.53,2.12.56,3.64,2.74,3.84.38.03.76.03,1.14.05.22.01.46.09.47.32.01.29-.26.25-.46.27-.14,0-.28,0-.42,0-3.02-.06-6.03-.05-9.05-.01-.29,0-.82.24-.83-.28,0-.38.48-.3.77-.31,1.33-.07,2.26-.82,2.98-1.85.96-1.37,1.63-2.9,2.29-4.42,1.74-3.96,3.45-7.94,5.16-11.91,1.22-2.83,2.44-5.66,3.66-8.49.15-.35.3-.7.49-1.03.29-.52.61-.54.89,0,.58,1.11,1.11,2.24,1.65,3.36.12.25.21.51.33.76,2.24,4.58,4.51,9.14,6.72,13.73,1.04,2.15,2.07,4.31,3.15,6.44.41.81.92,1.55,1.48,2.25,1.44,1.81,4.49,1.47,5.83-.27,1.07-1.39,1.76-2.98,2.46-4.56,1.53-3.45,3-6.92,4.5-10.39,1.52-3.53,3.05-7.05,4.58-10.58.14-.32.27-.65.47-.92.19-.27.47-.3.68,0,.12.17.2.36.29.55,3.02,6.2,6.06,12.39,9.06,18.6,1.03,2.12,1.96,4.29,3.18,6.3.71,1.17,1.53,2.24,3.04,2.45.2.03.43.12.38.39-.04.23-.26.18-.43.19-.24.01-.49,0-.73,0-2.74-.05-5.48-.07-8.22,0-.28,0-.55,0-.83-.02-.1,0-.2-.04-.22-.17-.03-.17.08-.29.2-.31.27-.06.55-.07.82-.09.34-.03.69,0,1.02-.14.72-.3.97-.78.83-1.56-.1-.55-.29-1.07-.53-1.57-1.54-3.18-3.11-6.35-4.62-9.54-.34-.72-.74-1.04-1.57-1.01-2.11.06-4.23.05-6.34,0-.71-.02-1.03.23-1.3.88-1.1,2.65-2.25,5.29-3.41,7.92-.38.85-.46,1.73-.42,2.64.03.76.39,1.33,1.01,1.71.59.37,1.24.62,1.95.65.24.01.49,0,.73.03.27.02.64,0,.62.37-.02.33-.37.22-.59.23-.42.01-.83,0-1.25,0-2.88-.08-5.76-.02-8.63.02ZM53.33,122.98c-1.16,2.69-2.27,5.24-3.35,7.76.24.2.42.18.59.18,1.9,0,3.8,0,5.71,0,.83,0,.89-.12.51-.92-.84-1.78-1.69-3.56-2.56-5.33-.26-.52-.35-1.12-.89-1.69ZM85.39,123.01c-.23.37-.34.51-.41.66-.95,2.19-1.91,4.37-2.85,6.56-.24.55-.16.68.46.68,2.08,0,4.15-.01,6.23-.03.05,0,.1-.08.22-.17-1.07-2.54-2.38-4.99-3.65-7.7Z"/>
      <path class="cls-1" d="M278.95,140.94c.54-.77.74-1.48,1.03-2.14,2.42-5.48,4.81-10.97,7.2-16.46.44-1.02.89-2.03,1.33-3.05.33-.76.91-1.2,1.72-1.05,1.46.26,2.9-.06,4.34-.02.14,0,.28-.01.42,0,.26.02.65-.1.66.29,0,.4-.39.31-.65.31-.53,0-1.03.14-1.53.28-1.33.36-1.89,1.08-1.93,2.48-.02.9-.09,1.8.13,2.69.03.13.04.28.03.41-.07,2.32.2,4.63.27,6.95.1,3.15.31,6.29.43,9.43.03.82.08,1.66.17,2.48.17,1.67.66,2.31,2.39,2.36.42.01,1.18-.27,1.18.38,0,.43-.76.21-1.18.21-2.91.02-5.83.02-8.74,0-.28,0-.77.17-.78-.23-.01-.47.49-.34.82-.36.45-.04.9.01,1.34-.13.8-.25,1.2-.65,1.21-1.48.02-1.45.09-2.91-.11-4.36-.02-.17-.06-.34-.06-.52.07-2.25-.22-4.5-.24-6.75-.02-2.22-.24-4.42-.26-6.64,0-.8-.11-1.63-.18-2.46-.3.05-.33.28-.41.46-1.75,4.07-3.48,8.15-5.23,12.22-1.35,3.15-2.71,6.3-4.07,9.44-.05.13-.11.26-.19.37-.33.47-.65.47-.92-.07-.63-1.23-1.23-2.49-1.84-3.73-.12-.25-.22-.51-.34-.76-2.53-5.17-5.07-10.33-7.6-15.49-.3-.62-.59-1.25-.88-1.88-.06-.13-.16-.22-.33-.23-.33.25-.22.63-.22.96-.02,1.28-.03,2.57-.02,3.85.03,4.4-.31,8.8-.23,13.2.01.74.15,1.44.4,2.13.4,1.09,1.19,1.66,2.31,1.84.17.03.35.02.52.03.27.02.64-.01.62.37-.02.32-.37.23-.6.23-1.35,0-2.7-.01-4.06-.01-1.25,0-2.5.01-3.74.02-.2,0-.47.03-.48-.25,0-.24.22-.32.44-.35.14-.02.28,0,.41-.03,1.34-.17,2.2-.92,2.62-2.2.22-.66.35-1.33.36-2.03.06-4.61.21-9.21.27-13.82.02-1.93.06-3.88.16-5.81.06-1.13-.49-1.84-1.33-2.4-.64-.42-1.34-.73-2.12-.81-.2-.02-.46,0-.46-.29,0-.36.31-.29.54-.31.07,0,.14,0,.21,0,1.62.05,3.24.16,4.86,0,.69-.07,1.2.22,1.53.84.26.49.55.96.8,1.46,2.86,5.78,5.71,11.56,8.56,17.34.47.96.91,1.94,1.44,3.07Z"/>
      <path class="cls-1" d="M145.05,49.66c0-7.94,0-15.88,0-23.82,0-1.33-.09-1.26,1.22-1.26,1.04,0,2.08.01,3.12,0,.49,0,.7.2.66.68-.02.21,0,.42,0,.62,0,15.92,0,31.83,0,47.75,0,1.38.11,1.31-1.28,1.31-1.01,0-2.01-.02-3.02,0-.54.01-.76-.21-.72-.74.02-.24,0-.49,0-.73,0-7.94,0-15.88,0-23.82Z"/>
      <path class="cls-1" d="M177.36,117.77c4.15-.05,7.65,1.41,10.48,4.44,1.92,2.06,3.07,4.51,3.58,7.26.42,2.28.35,4.55-.36,6.77-1.22,3.8-3.6,6.66-7.04,8.67-2.9,1.69-6.04,2.43-9.37,2.2-6.28-.43-11.15-4.46-12.71-10.5-.87-3.35-.78-6.72.59-9.98.95-2.27,2.52-4.06,4.44-5.52,3.06-2.31,6.58-3.3,10.39-3.33ZM165.62,130.81c.03,1.17,0,2.34.2,3.51.43,2.57,1.25,4.97,2.79,7.07,2.66,3.65,6.22,5.29,10.73,4.47,2.18-.39,3.97-1.53,5.37-3.27,1.81-2.25,2.54-4.89,2.76-7.69.22-2.89-.14-5.73-1.2-8.45-.89-2.29-2.28-4.21-4.29-5.6-2.46-1.71-5.19-2.29-8.18-1.84-3.38.51-5.71,2.35-7.06,5.42-.89,2.02-1.24,4.17-1.11,6.38Z"/>
      <path class="cls-1" d="M115.47,81.58c0,6.69,0,13.38,0,20.07,0,.28,0,.55,0,.83,0,.4-.19.55-.58.55-1.28,0-2.57,0-3.85,0-.4,0-.56-.19-.55-.57,0-.24,0-.49,0-.73,0-13.42,0-26.83,0-40.25,0-1.45-.13-1.32,1.36-1.33.97,0,1.94.02,2.91,0,.55-.02.76.21.71.73-.02.24,0,.49,0,.73,0,6.66,0,13.31,0,19.97Z"/>
      <path class="cls-1" d="M109.66,122.5c0,.32,0,.6,0,.87,0,5.97,0,11.93,0,17.9,0,.7.06,1.38.21,2.06.31,1.46,1.26,2.37,2.73,2.58.14.02.28.01.41.05.17.05.32.14.29.36-.03.18-.19.18-.32.2-.07.01-.14,0-.21,0-2.53,0-5.06,0-7.59,0-.22,0-.57.09-.57-.26,0-.3.31-.34.56-.33,1.98.08,3.05-1.58,3.25-3.49.04-.41.02-.83.02-1.25,0-6.45-.01-12.9.02-19.35,0-.82-.25-1.34-.9-1.83-.83-.62-1.71-1.03-2.72-1.19-.19-.03-.34-.12-.32-.32.02-.21.2-.27.38-.26.52.01,1.04-.01,1.55.07.83.13,1.65.14,2.48,0,.14-.02.27-.05.41-.06,2.15-.16,2.12-.14,3.45,1.53,1.91,2.38,3.86,4.71,5.8,7.06,1.83,2.22,3.65,4.43,5.48,6.65,1.79,2.16,3.57,4.32,5.37,6.47.19.23.34.52.75.59.13-.25.07-.53.07-.79,0-5.34,0-10.68,0-16.02,0-.8-.14-1.59-.29-2.36-.28-1.42-1.2-2.22-2.59-2.5-.1-.02-.21-.02-.31-.03-.2-.02-.47-.02-.43-.31.03-.23.27-.3.49-.29.49,0,.98-.02,1.45.04,1.48.2,2.96.2,4.45,0,.55-.07,1.11-.04,1.66-.04.21,0,.46,0,.49.26.04.27-.2.32-.41.34-.14.01-.28.02-.41.05-1.63.35-2.56,1.27-2.81,2.93-.13.85-.24,1.71-.24,2.58.02,7.25.01,14.5,0,21.75,0,.36.21.9-.17,1.05-.45.18-.68-.37-.92-.67-2.39-2.83-4.76-5.68-7.14-8.51-1.65-1.96-3.32-3.9-4.97-5.86-1.67-1.98-3.33-3.98-5-5.97-.94-1.11-1.88-2.22-2.83-3.32-.13-.15-.24-.35-.62-.37Z"/>
      <path class="cls-1" d="M124.02,81.56c0,6.69,0,13.38,0,20.07,0,.24-.01.49,0,.73.03.48-.17.69-.66.68-1.18-.02-2.36-.01-3.53,0-.44,0-.64-.18-.62-.62.01-.24,0-.49,0-.73,0-13.41,0-26.82,0-40.24,0-1.38-.11-1.3,1.29-1.3.97,0,1.94.01,2.91,0,.45,0,.63.19.61.62-.01.28,0,.55,0,.83,0,6.65,0,13.31,0,19.96Z"/>
      <path class="cls-1" d="M156.3,153.78c48.69,0,97.37,0,146.06,0,.38,0,.76,0,1.14.03.15,0,.26.09.28.25.02.21-.09.32-.29.34-.14.02-.28.02-.41.02-.28,0-.55,0-.83,0-97.37,0-194.75,0-292.12,0-.42,0-.83,0-1.25-.02-.15,0-.26-.1-.28-.25-.02-.21.09-.33.29-.34.35-.02.69-.02,1.04-.02,19.25,0,38.49,0,57.74,0h88.63Z"/>
      <path class="cls-1" d="M251.5,142.09c.84-1.4,1.22-2.8,1.16-4.34-.07-1.59-.69-2.35-2.22-2.68-.25-.05-.66.07-.64-.34.02-.38.42-.28.67-.28,2.32,0,4.64,0,6.97-.01.14,0,.28,0,.42.02.16,0,.28.1.27.25,0,.14-.12.26-.26.28-.2.04-.41.05-.62.06-.99.07-1.7.48-1.98,1.51-.2.73-.51,1.43-.77,2.15-.42,1.18-1.02,2.27-1.71,3.31-.49.75-.5.76.26,1.27,1.74,1.16,3.54,2.17,5.61,2.62.21.05.42.11.37.38-.04.22-.24.23-.41.23-1.77,0-3.54.02-5.3-.03-.7-.02-1.32-.4-1.92-.75-.27-.16-.54-.31-.8-.48-.36-.23-.67-.25-1.04.02-1.35.97-2.88,1.47-4.51,1.71-1.56.23-3.1.21-4.63-.18-1.02-.26-1.87-.81-2.67-1.52-1.44-1.26-1.4-3.99-.54-5.28.84-1.26,2.02-2.18,3.16-3.13.77-.64.8-.64.24-1.48-.7-1.05-1.26-2.15-1.55-3.38-.44-1.89-.22-3.68,1.14-5.15,1.04-1.13,2.4-1.78,3.91-1.96,1.2-.15,2.41-.11,3.58.35,1.4.55,1.98,1.4,2.07,2.9.12,2.05-1.02,3.38-2.46,4.55-.72.59-1.54,1.06-2.3,1.6-.57.4-.6.52-.21,1.09.43.62.88,1.25,1.39,1.81,1.45,1.59,2.96,3.12,4.66,4.44.19.15.4.26.67.44ZM249.21,144.41c-.03-.25-.17-.35-.3-.45-1.26-.97-2.44-2.03-3.56-3.16-1.12-1.13-2.25-2.24-3.27-3.47-.41-.49-.58-.46-.97.02-.77.97-1.31,2.07-1.34,3.3-.04,1.5.44,2.83,1.68,3.83,1.53,1.24,3.27,1.39,5.09,1.09.98-.16,1.95-.43,2.67-1.17ZM241.82,128.48c0,1.76.94,3.9,1.86,5.31.26.39.51.23.76,0,.9-.82,1.7-1.73,2.15-2.89.53-1.35.53-2.71-.24-3.97-.57-.94-1.48-1.34-2.57-1.19-1.06.14-1.61.83-1.86,1.83-.08.31-.1.61-.1.92Z"/>
      <path class="cls-1" d="M147.19,118.22c2.84,0,5.68,0,8.53,0,1.11,0,1.16.05,1.17,1.18.01,1.35.01,2.7.02,4.06,0,.24,0,.49-.03.73-.02.15-.13.25-.29.22-.09-.02-.21-.09-.23-.17-.1-.33-.18-.67-.26-1-.5-2.03-2.34-3.85-4.83-3.81-1.21.02-2.43-.01-3.64.01-1.7.04-2.38.73-2.39,2.44-.02,2.98-.01,5.96,0,8.94,0,.92.02.94.92.94,1.42,0,2.84,0,4.26-.01.67,0,1.3-.17,1.91-.42.94-.39,1.47-1.11,1.67-2.1.03-.14,0-.28.05-.41.05-.17.15-.32.37-.28.18.03.19.19.2.32.01.24,0,.48,0,.73,0,1.98,0,3.95.01,5.93,0,.24,0,.49,0,.73,0,.2,0,.46-.3.44-.27-.02-.26-.26-.3-.47-.32-2.08-1.4-3.11-3.52-3.22-1.52-.08-3.05-.01-4.57-.04-.55-.01-.71.23-.71.75.02,3.26,0,6.52.03,9.78.01,1.35.53,1.91,1.84,2.26.41.11.81.17,1.23.18.55,0,1.11.01,1.66.03.25,0,.55.03.54.34-.02.35-.36.25-.58.25-3.88,0-7.76,0-11.65,0-.07,0-.14,0-.21,0-.17-.02-.38,0-.4-.23-.02-.27.2-.34.42-.36.28-.02.55-.01.83-.03.31-.01.63,0,.93-.07.81-.16,1.38-.56,1.52-1.46.06-.41.13-.82.13-1.23,0-7.18,0-14.35,0-21.53,0-.1,0-.21,0-.31-.05-1.57-.78-2.33-2.36-2.46-.34-.03-.69-.02-1.04-.04-.15,0-.27-.09-.28-.25-.02-.22.13-.31.32-.32.28-.02.55-.02.83-.02,2.74,0,5.48,0,8.21,0Z"/>
      <path class="cls-1" d="M136.5,40.39c0-4.82,0-9.64,0-14.46,0-.28,0-.55,0-.83,0-.34.16-.51.51-.51,1.32,0,2.63,0,3.95,0,.33,0,.52.14.52.49,0,.24,0,.49,0,.73,0,9.74,0,19.49,0,29.23,0,.21,0,.42,0,.62.02.48-.22.7-.69.7-1.25,0-2.5,0-3.74,0-.39,0-.57-.19-.56-.57,0-.24,0-.49,0-.73,0-4.89,0-9.78,0-14.67Z"/>
      <path class="cls-1" d="M224.2,117.78c1.54-.03,3.79.28,5.97,1.04.36.12.71.29,1.05.46.33.16.55.43.59.81.18,1.75.44,3.5.44,5.27,0,.2.05.46-.24.48-.18.01-.29-.17-.34-.34-.24-.73-.6-1.4-.98-2.06-1.37-2.38-3.54-3.65-6.13-4.26-2.45-.58-4.87-.46-7.24.46-2.91,1.14-4.72,3.31-5.69,6.21-.82,2.43-.98,4.92-.67,7.47.32,2.63,1.11,5.06,2.5,7.3,1.63,2.62,3.82,4.56,6.85,5.39,4.13,1.12,7.92-.26,10.25-3.77.56-.84.99-1.75,1.41-2.66.07-.16.11-.33.19-.48.09-.16.23-.27.43-.21.21.06.22.23.2.41-.2,1.68-.39,3.36-.59,5.04-.07.59-.36.99-.94,1.24-1.67.7-3.43,1.04-5.2,1.36-1.51.27-3.04.28-4.56.2-4.18-.24-7.91-1.57-10.89-4.65-2.09-2.17-3.23-4.8-3.75-7.72-.38-2.15-.29-4.27.34-6.36.88-2.93,2.65-5.22,5.08-7.03,3.31-2.46,7.05-3.6,11.93-3.56Z"/>
      <path class="cls-1" d="M184.76,56.81c0,4.54,0,9.09,0,13.63,0,.24,0,.49,0,.73.02.42-.13.65-.59.65-1.32-.01-2.64-.01-3.95,0-.46,0-.62-.22-.6-.64.01-.21,0-.42,0-.62,0-9.16,0-18.31,0-27.47,0-1.35-.08-1.27,1.22-1.27,1.01,0,2.01,0,3.02,0,.9,0,.91.02.91.95,0,3.64,0,7.28,0,10.93,0,1.04,0,2.08,0,3.12Z"/>
      <path class="cls-1" d="M176.04,56.92c0,4.51,0,9.02,0,13.53,0,.24-.02.49,0,.73.04.51-.23.66-.69.65-1.21-.02-2.43-.02-3.64,0-.51,0-.68-.23-.65-.7.01-.17,0-.35,0-.52,0-9.19,0-18.38,0-27.57,0-.17.02-.35,0-.52-.06-.56.23-.71.74-.7,1.11.02,2.22,0,3.33,0,.89,0,.9.02.9.95,0,3.99,0,7.98,0,11.96,0,.73,0,1.46,0,2.18Z"/>
      <path class="cls-1" d="M184.76,89.19c0,4.16,0,8.32,0,12.48,0,.24-.01.49,0,.73.02.43-.15.64-.6.63-1.32-.01-2.63-.01-3.95,0-.46,0-.61-.23-.59-.65,0-.21,0-.42,0-.62,0-8.39,0-16.78,0-25.17,0-1.34-.08-1.25,1.23-1.25.94,0,1.87,0,2.81,0,1.11,0,1.11,0,1.11,1.16,0,4.23,0,8.46,0,12.69Z"/>
      <path class="cls-1" d="M26.97,146.53c-3.26,0-6.52,0-9.78,0-.31,0-.86.2-.87-.25-.01-.57.58-.27.91-.35.16-.04.35,0,.52-.02,1.48-.07,1.96-.57,2.06-2.03.34-4.95.08-9.91.15-14.86.03-1.94-.02-3.88.02-5.83.02-.91-.16-1.79-.21-2.69-.04-.73-.52-1.17-1.19-1.43-.63-.24-1.29-.23-1.95-.25-.19,0-.36-.09-.35-.3,0-.21.18-.29.36-.29.73.01,1.46,0,2.18.06,1.97.16,3.94.18,5.91,0,.72-.07,1.45-.04,2.18-.04.19,0,.33.11.3.33-.02.17-.15.23-.29.24-.28.02-.55.02-.83.03-1.74.08-2.49.84-2.55,2.6,0,.21,0,.42,0,.62,0,6.83,0,13.66,0,20.49,0,.56.04,1.1.18,1.65.14.56.47.9,1,1.08.43.15.87.19,1.33.19,1.66,0,3.33.03,4.99,0,2.52-.04,4.43-1.17,5.73-3.34.41-.68.76-1.39.95-2.18.05-.2.13-.4.23-.58.07-.12.21-.19.35-.1.09.05.16.14.12.26-.12.44-.07.9-.12,1.34-.19,1.55-.2,3.11-.23,4.66-.01.84-.19.98-1.1.98-3.33,0-6.66,0-9.99,0Z"/>
      <path class="cls-1" d="M176.04,89.28c0,4.12,0,8.25,0,12.37,0,.28,0,.55,0,.83,0,.4-.2.55-.58.55-1.28,0-2.56,0-3.85,0-.4,0-.56-.2-.55-.58,0-.21,0-.42,0-.62,0-8.42,0-16.84,0-25.26,0-.17.02-.35,0-.52-.05-.56.22-.72.74-.71,1.11.02,2.22,0,3.33,0,.9,0,.91.01.91.94,0,4.02,0,8.04,0,12.06,0,.31,0,.62,0,.94Z"/>
      <path class="cls-1" d="M193.34,89.17c0,4.16,0,8.32,0,12.48,0,.28,0,.55,0,.83,0,.32-.11.54-.47.54-1.35,0-2.7,0-4.06,0-.3,0-.44-.17-.45-.46,0-.21,0-.42,0-.62,0-8.49,0-16.99,0-25.48,0-.21,0-.42,0-.62,0-.35.19-.49.52-.49,1.32,0,2.63,0,3.95,0,.35,0,.5.17.5.51,0,.28,0,.55,0,.83,0,4.16,0,8.32,0,12.48Z"/>
      <path class="cls-1" d="M202.06,89.18c0,4.16,0,8.32,0,12.48,0,.28,0,.55,0,.83,0,.32-.11.54-.47.54-1.35,0-2.7,0-4.06,0-.29,0-.44-.17-.45-.45,0-.24,0-.49,0-.73,0-8.42,0-16.85,0-25.27,0-.17.02-.35,0-.52-.05-.56.22-.72.74-.71,1.18.02,2.36.03,3.54,0,.54-.01.74.2.72.73-.03.76,0,1.53,0,2.29,0,3.61,0,7.21,0,10.82Z"/>
      <path class="cls-1" d="M141.49,73.36c0,4.16,0,8.32,0,12.48,0,.28,0,.55,0,.83,0,.35-.18.5-.52.49-1.32,0-2.63,0-3.95,0-.34,0-.51-.17-.51-.51,0-.24,0-.49,0-.73,0-8.32,0-16.64,0-24.96,0-.21.01-.42,0-.62-.03-.45.2-.61.63-.6,1.25.01,2.5.01,3.74,0,.44,0,.63.17.62.62-.01.83,0,1.66,0,2.5,0,3.5,0,7,0,10.5Z"/>
      <path class="cls-1" d="M127.76,73.59c0-4.05,0-8.11,0-12.16,0-.28,0-.55.01-.83,0-.3.18-.44.46-.44,1.35,0,2.7,0,4.05,0,.36,0,.48.2.48.53,0,.24,0,.48,0,.73,0,8.18,0,16.35,0,24.53,0,.1,0,.21,0,.31-.02.9-.02.91-.94.91-1.04,0-2.08,0-3.12,0-.94,0-.95-.01-.95-1.01,0-2.77,0-5.54,0-8.31,0-1.42,0-2.84,0-4.26Z"/>
      <path class="cls-1" d="M98.21,94.31c0,2.6,0,5.19,0,7.79,0,.92-.01.93-.91.94-1.11,0-2.21.01-3.32,0-.73-.01-.73-.03-.76-.78,0-.14,0-.28,0-.42,0-5.05,0-10.1,0-15.16,0-.24,0-.48.01-.73.01-.24.14-.4.38-.4,1.38,0,2.77,0,4.15,0,.3,0,.43.17.44.46,0,.24,0,.48,0,.73,0,2.53,0,5.05,0,7.58Z"/>
      <path class="cls-1" d="M101.77,94.27c0-2.6,0-5.2,0-7.8,0-.92.01-.93.91-.94,1.14,0,2.29,0,3.43,0,.43,0,.66.14.63.6-.01.21,0,.42,0,.62,0,5.03,0,10.05,0,15.08,0,.24,0,.49,0,.73,0,.29-.14.46-.44.46-1.35,0-2.7,0-4.05,0-.29,0-.45-.14-.47-.44,0-.24-.01-.49-.01-.73,0-2.53,0-5.06,0-7.59Z"/>
      <path class="cls-1" d="M141.49,96.87c0,1.8,0,3.6,0,5.4,0,.73-.03.75-.77.76-1.11.01-2.22.01-3.32,0-.87,0-.88-.02-.89-.96,0-2.28,0-4.57,0-6.85,0-1.32,0-2.63,0-3.95,0-.45.1-.72.63-.72,1.25.02,2.49.02,3.74,0,.53,0,.63.26.63.71-.01,1.87,0,3.74,0,5.61Z"/>
      <path class="cls-1" d="M127.76,96.8c0-1.8,0-3.6,0-5.41,0-.81.02-.83.8-.84,1.11-.01,2.22-.01,3.33,0,.86,0,.87.02.88.87,0,2.81,0,5.62,0,8.42,0,.8.01,1.59,0,2.39-.01.76-.03.78-.75.79-1.14.02-2.29.01-3.43,0-.8,0-.82-.02-.82-.82-.01-1.8,0-3.6,0-5.41Z"/>
      <path class="cls-1" d="M158.75,96.77c0,1.77,0,3.54,0,5.3,0,.94-.01.95-.9.95-1.07,0-2.15.01-3.22,0-.81,0-.82-.02-.83-.81-.01-1.04,0-2.08,0-3.12,0-2.53,0-5.06,0-7.59,0-.94.01-.94.9-.95,1.04,0,2.08,0,3.12,0,.92,0,.93.01.94.91,0,1.77,0,3.54,0,5.3Z"/>
      <path class="cls-1" d="M145.05,96.77c0-1.77,0-3.53,0-5.3,0-.9.02-.91.94-.91,1.11,0,2.22.01,3.33,0,.51,0,.75.15.75.71-.02,3.71-.01,7.42,0,11.12,0,.5-.21.66-.69.66-1.21-.02-2.43-.02-3.64,0-.57.01-.7-.26-.69-.76.02-1.84,0-3.67,0-5.51Z"/>
      <path class="cls-1" d="M134.51,175.71c-.8.26-1.61.43-2.47.25-2.08-.45-3.76-1.54-5.05-3.22-.33-.43-.66-.63-1.2-.64-3.39-.08-6.06-2.29-6.65-5.61-.63-3.52.55-6.57,4.18-8.14,2.71-1.17,5.38-1.18,7.88.62,1.38.99,2.18,2.38,2.59,4,.93,3.69-1.3,7.19-4.34,8.51-1.05.45-1.09.54-.33,1.4,1.31,1.49,2.84,2.65,4.97,2.59.13,0,.27.03.4.05,0,.07.01.14.02.21ZM132.15,165.2c0-.17.02-.48,0-.79-.22-3.43-2.65-6.49-6.68-6.26-1.91.11-3.61,1.3-4.26,3.1-.62,1.71-.61,3.42-.18,5.19.38,1.54,1.13,2.8,2.29,3.85,2.08,1.89,5.69,1.77,7.51-.49,1.06-1.31,1.4-2.82,1.33-4.61Z"/>
      <path class="cls-1" d="M135.91,157.9c.54-.19,1.02-.2,1.42-.08,1.27.37,2.57-.34,3.86.09-.16.33-.39.23-.58.26-.98.13-1.25.4-1.37,1.37,0,.07,0,.14,0,.21,0,1.25.01,2.5,0,3.75,0,.51.14.76.7.76,2.39-.02,4.79-.01,7.18,0,.49,0,.68-.2.67-.68-.02-1.39-.02-2.77,0-4.16,0-.62-.34-.94-.87-1.15-.29-.12-.63,0-1.03-.29.95-.32,1.8-.04,2.64-.04.87,0,1.75-.24,2.77-.02-.33.36-.66.24-.93.31-.81.22-.96.36-.97,1.22-.02,1.01,0,2.01,0,3.02,0,2.46,0,4.92,0,7.39,0,1.51,0,1.51,1.54,1.7.11.01.19.05.23.16-.64.24-4.09.29-5.21.05.26-.32.59-.2.86-.25.72-.14.96-.38.97-1.11.02-1.63,0-3.26.02-4.89,0-.48-.18-.68-.67-.68-2.43.01-4.86.01-7.28,0-.46,0-.6.21-.6.64.01,1.56-.02,3.12.01,4.68.02.94.4,1.29,1.33,1.37.2.02.42-.04.59.14-.5.29-3.56.38-5.17.15.11-.39.44-.25.67-.29.81-.13,1.1-.39,1.11-1.22.02-3.61.01-7.21,0-10.82,0-.73-.3-1.06-.99-1.26-.25-.07-.56.07-.85-.3Z"/>
      <path class="cls-1" d="M78.07,171.88c-1.35,0-2.69,0-4.11,0,.1-.22.12-.31.16-.32,1.17-.26,1.22-.32,1.23-1.5,0-1.25,0-2.5,0-3.75,0-.24,0-.49-.03-.73-.2-1.3-1.21-1.91-2.53-1.56-1.22.32-1.83,1.11-1.83,2.38,0,1.14,0,2.29,0,3.43,0,1.34.09,1.44,1.32,1.8-.51.28-2.43.35-3.87.14,0-.06,0-.17.02-.18,1.09-.41,1.11-.43,1.12-1.54,0-1.53.01-3.05,0-4.58-.01-1.22-.29-1.41-1.45-1.1-.17.05-.37.25-.56,0,0-.27.23-.31.41-.39.6-.28,1.19-.57,1.79-.83.67-.3.79-.24,1.05.47.05.13.1.26.13.39.03.13.05.27.08.42.39.03.51-.31.74-.49.75-.59,1.54-1.03,2.54-1.02,1.23.02,2.05.55,2.37,1.76.43-.13.62-.49.9-.73.73-.63,1.52-1.05,2.53-1.03,1.62.04,2.46.94,2.5,2.79.03,1.42,0,2.84.01,4.27,0,1.2.04,1.23,1.15,1.63-.53.31-2.99.35-3.89.06q1.32-.55,1.32-2.1c0-1.11.02-2.22-.01-3.33-.03-.84-.09-1.73-.98-2.13-.89-.4-1.77-.16-2.55.38-.56.39-.93.85-.88,1.64.08,1.31.02,2.63.02,3.95,0,1.11.06,1.16,1.18,1.43.06.01.1.08.15.13l-.02.21Z"/>
      <path class="cls-1" d="M219.32,98.54c0,1.25-.01,2.49,0,3.74,0,.5-.11.78-.69.76-1.21-.03-2.42-.02-3.63,0-.48,0-.68-.17-.68-.66.01-2.56.01-5.12,0-7.68,0-.45.21-.61.63-.6,1.24.01,2.49.02,3.73,0,.53,0,.63.27.62.72-.01,1.24,0,2.49,0,3.74Z"/>
      <path class="cls-1" d="M164.08,171.77c.16-.37.44-.24.65-.27.92-.14,1.13-.34,1.14-1.27.02-1.7,0-3.4,0-5.1,0-1.77,0-3.54,0-5.31,0-1.27-.17-1.45-1.46-1.68-.13-.02-.28,0-.3-.26.21-.18.49-.11.75-.11,2.46,0,4.92,0,7.39,0,1.01,0,1.05.05,1.07,1.06,0,.59-.01,1.18-.02,1.77,0,.09-.05.13-.18.13-.28-.13-.19-.46-.26-.69-.31-1.01-1-1.57-2.03-1.66-.69-.06-1.39-.05-2.08,0-.95.07-1.24.37-1.25,1.3-.02,1.25-.02,2.5,0,3.74,0,.78.03.79.85.81.59.01,1.18-.01,1.77,0,1.02.03,1.9-.14,2.05-1.47.39.65.44,2.94.14,3.8-.76-1.7-.83-1.74-2.89-1.74-.45,0-.9,0-1.35,0-.39,0-.56.18-.56.57,0,1.66-.01,3.33.02,4.99.01.6.31.87.93.9.93.04,1.88.07,2.81,0,1.03-.08,1.67-.76,2.08-1.66.14-.31.24-.64.45-.94.25,1,.18,1.99-.08,2.97-.08.3-.39.25-.62.25-1.07,0-2.15,0-3.22,0-1.63,0-3.26,0-4.89,0-.29,0-.6.07-.88-.11Z"/>
      <path class="cls-1" d="M158.75,82.82c0,1.18.01,2.36,0,3.54-.01.68-.11.78-.8.79-1.11.02-2.22.02-3.33,0-.71-.01-.82-.11-.82-.76-.01-2.43,0-4.85,0-7.28,0-.42.14-.64.6-.64,1.25.01,2.5.02,3.74,0,.54,0,.63.27.63.72-.01,1.21,0,2.43,0,3.64Z"/>
      <path class="cls-1" d="M210.6,98.59c0,1.24-.02,2.49,0,3.73.01.54-.2.73-.73.72-1.14-.02-2.28-.02-3.42,0-.48,0-.68-.17-.68-.66.01-2.56,0-5.11,0-7.67,0-.44.19-.62.62-.61,1.17.01,2.35.02,3.52,0,.58-.01.69.28.68.77-.02,1.24,0,2.49,0,3.73Z"/>
      <path class="cls-1" d="M150.05,82.72c0,1.21-.01,2.42,0,3.63,0,.49-.2.67-.68.67-1.24-.02-2.49-.01-3.73,0-.45,0-.61-.2-.61-.63,0-2.42.01-4.84,0-7.26,0-.49.19-.67.67-.67,1.24.02,2.49.01,3.73,0,.45,0,.61.19.61.63-.01,1.21,0,2.42,0,3.63Z"/>
      <path class="cls-1" d="M207.63,165.7c.49-.04.97,0,1.42-.12,2.1-.5,2.94-2.11,2.77-4.14-.2-2.27-1.8-3.52-4.06-3.28-.74.08-1.04.38-1.11,1.12-.02.21,0,.42,0,.62,0,3.22,0,6.44,0,9.66,0,1.56.31,1.88,1.86,1.94.24,0,.49-.05.77.17-.61.39-1.26.16-1.86.19-.69.04-1.38.01-2.08,0-.63,0-1.26-.01-1.96-.02.19-.45.47-.35.68-.36.58-.03.85-.35,1-.88.1-.38.12-.75.12-1.13,0-3.12,0-6.23,0-9.35,0-.1,0-.21,0-.31-.07-1.21-.41-1.67-1.49-1.69-.09,0-.17-.07-.34-.15.41-.34.83-.23,1.2-.17.76.14,1.5.09,2.26.01,1.23-.11,2.47-.19,3.72.07,2.81.59,3.61,3.08,2.63,5.46-.74,1.81-3.18,3.02-5.08,2.64-.16-.03-.34-.07-.44-.3Z"/>
      <path class="cls-1" d="M153.81,167.89c.2.5.39,1.01.61,1.5.82,1.79,2.54,2.64,4.22,2.2,1.31-.34,1.87-1.36,1.71-2.79-.13-1.21-.81-2.11-1.82-2.77-.96-.63-1.94-1.21-2.87-1.87-1.04-.73-1.67-1.71-1.68-3.05-.02-1.33.61-2.28,1.68-2.91,1.57-.92,3.24-.86,4.9-.19.44.18.66.51.67.96.02.65,0,1.3,0,1.95-.38.06-.32-.22-.38-.39-.39-1.06-.89-2.03-2.08-2.42-1.13-.37-2.24-.1-2.91.75-.58.73-.64,2.2-.1,3.05.32.5.7.93,1.22,1.25,1.12.69,2.27,1.35,3.31,2.15,1.85,1.42,2.16,3.49.78,5.29-.66.87-1.63,1.32-2.67,1.45-1.27.16-2.55.11-3.78-.41-.54-.23-.88-.52-.82-1.15.08-.86-.36-1.7.03-2.6Z"/>
      <path class="cls-1" d="M288.56,171.84c-1.38.08-2.67.03-3.96.04-.02-.35.14-.36.26-.37.64-.09.87-.48.87-1.08,0-1.73.02-3.46-.01-5.19-.02-.9-.38-1.12-1.29-.87-.22.06-.45.12-.66.17-.1-.31.06-.39.21-.46.62-.3,1.25-.59,1.88-.87.68-.31.78-.27,1.08.43.12.28.19.57.31.91.43-.34.82-.67,1.22-.98.89-.7,1.94-.72,2.97-.55,1.02.17,1.69,1.21,1.72,2.55.03,1.38,0,2.77,0,4.16,0,.24,0,.49,0,.73.04.72.19.89.89,1.06.16.04.35-.02.43.19-.65.25-2.85.29-3.88.06-.04-.21.13-.2.25-.24.79-.27.88-.36.89-1.17.02-1.42.02-2.84,0-4.26-.03-1.77-1.17-2.57-2.86-2.02-.43.14-.82.36-1.17.66-.43.36-.61.78-.59,1.36.04,1.31,0,2.63.02,3.95,0,1.13.1,1.24,1.22,1.53.04.01.07.1.18.29Z"/>
      <path class="cls-1" d="M104.53,171.72c-.77.23-3.06.23-3.89,0,.03-.24.24-.21.39-.22.52-.02.69-.31.77-.79.29-1.8.18-3.59-.06-5.38-.12-.87-.76-1.33-1.67-1.38-.72-.04-1.38.12-1.97.51-.61.41-.98.89-.94,1.71.07,1.28.01,2.56.02,3.85.01,1.13.1,1.23,1.22,1.53.04.01.06.1.16.29-1.37.06-2.66.05-4.02,0,.09-.19.12-.29.15-.29.77,0,1.12-.43,1.16-1.15.1-1.73.17-3.46-.03-5.18-.13-1.08-.27-1.11-1.38-.87-.13.03-.27.03-.4.04-.12-.34.16-.35.31-.43.55-.29,1.11-.57,1.68-.82.57-.26.71-.2.93.38.12.31.2.64.31,1.01.41-.31.79-.6,1.17-.89.69-.53,1.46-.74,2.33-.71,1.48.06,2.38.9,2.42,2.41.04,1.42.01,2.84.01,4.26,0,.28-.02.56.01.83.07.71.25.89,1.01,1.07.1.02.19.07.27.12.02,0,.01.06.02.09Z"/>
      <path class="cls-1" d="M231.92,163.65c.08-.19.17-.22.28-.23,1.12-.17,1.25-.31,1.28-1.45.03-1.36.25-2.68.81-3.93,1.09-2.44,3.87-2.95,6.01-2.13.37.14.65.39.68.83.02.37-.16.58-.49.71-.42.17-.73,0-1.02-.3-.21-.23-.42-.47-.66-.66-.86-.71-2.06-.57-2.77.3-.64.78-.92,1.72-1.05,2.67-.15,1.06-.11,2.14-.22,3.2-.06.66.03.7.7.71.52,0,1.04.02,1.54-.14.23-.07.49-.08.67.13.18.2.19.44.09.68-.11.28-.33.27-.6.23-.61-.1-1.21-.29-1.84-.28-.37,0-.6.12-.58.53.07,1.93-.17,3.88.13,5.81.16,1.03.26,1.11,1.33,1.18.17.01.35.02.52.04.05,0,.1.08.15.12-.57.28-3.76.34-4.9.09.03-.31.28-.22.46-.25.73-.12,1.01-.33,1.02-1.05.04-1.87.03-3.74,0-5.61,0-.67-.26-.89-.94-1.03-.2-.04-.42.02-.61-.16Z"/>
      <path class="cls-1" d="M238.89,167.31c-.26-2.06,2-4.41,4.77-4.41,2.66,0,4.43,2.55,4.39,4.7-.05,2.68-2.28,4.62-4.88,4.57-2.56-.06-4.46-2.32-4.28-4.85ZM246.41,167.95c.08-1.12-.27-2.37-1.14-3.44-.73-.9-1.71-1.3-2.86-1.1-1.15.2-1.61,1.06-1.88,2.1-.4,1.53,0,2.95.6,4.32.21.47.56.88.97,1.21,1.22.96,3.52,1.1,4.13-1.2.14-.55.16-1.09.18-1.89Z"/>
      <path class="cls-1" d="M44.12,171.07c-.47.7-1.23.88-1.97.99-.82.13-1.6-.44-1.85-1.2-.2-.6.09-1.29.76-1.78.62-.45,1.34-.7,2.05-.96q1.94-.69,1.85-2.74c-.01-.31-.05-.61-.15-.92-.16-.5-.39-.87-.97-.93-.65-.08-1.18.1-1.5.69-.18.33-.26.71-.39,1.07-.1.26-.22.5-.5.63-.28.14-.53.11-.78-.04-.29-.17-.32-.44-.28-.72.04-.32.18-.61.44-.8.98-.74,2.05-1.3,3.29-1.39,1.39-.11,2.19.63,2.25,2.09.04,1.04,0,2.08.01,3.11,0,.52-.01,1.04,0,1.56.04,1,.42,1.28,1.4,1.07.1-.02.19-.08.29-.1.06-.01.13.02.2.03-.28.32-1.98,1.3-2.32,1.32-.5.03-.66-.37-.74-.72-.13-.54-.48-.49-.87-.43l-.05-.05c.14-.35.67-.39.67-.86-.01-.55,0-1.1-.01-1.65,0-.24-.15-.41-.4-.34-.82.26-1.65.49-2.34,1.04-.42.34-.49.81-.33,1.31.17.52.52.78,1.09.75.38-.02.75-.02,1.13-.03h0Z"/>
      <path class="cls-1" d="M23.52,170.86c-.54.63-1.25.97-2.03,1.17-.88.22-1.88-.21-2.07-.95-.21-.83-.21-1.5.84-2.1.91-.52,1.89-.85,2.87-1.2.84-.3.84-.3.84-1.17,0-.59.01-1.18-.04-1.76-.07-.73-.47-1.18-1.02-1.28-.78-.14-1.22.08-1.6.83-.17.34-.28.71-.42,1.06-.14.36-.42.56-.79.58-.31.02-.52-.19-.65-.44-.19-.36-.06-.68.21-.94,1.11-1.1,2.43-1.7,4-1.66.76.02,1.27.48,1.53,1.2.15.4.19.8.18,1.22,0,1.28,0,2.56,0,3.84,0,1.55.25,1.74,1.77,1.46.05,0,.11.05.32.15-.85.42-1.6.84-2.38,1.15-.62.24-.81-.34-.88-.75-.09-.52-.35-.47-.7-.39.73-.65.64-1.52.6-2.37-.02-.52-.18-.66-.64-.49-.62.22-1.23.47-1.81.77-.66.34-.97,1.01-.79,1.53.21.59.85.89,1.64.77.34-.05.64-.3,1-.21Z"/>
      <path class="cls-1" d="M279.68,170.65c-.7,1.03-1.75,1.4-2.92,1.41-.66,0-1.18-.42-1.4-1.06-.24-.69.05-1.5.7-1.91.82-.53,1.74-.83,2.66-1.16,1.45-.51,1.46-.51,1.37-2.07-.03-.44-.11-.89-.23-1.32-.19-.67-.56-.96-1.16-.99-.73-.04-1.08.16-1.39.84-.14.31-.23.65-.34.98-.14.39-.38.66-.82.68-.31.01-.52-.16-.68-.41-.23-.36-.02-.67.17-.95.67-.98,3.23-1.95,4.39-1.68.75.18,1.29.91,1.31,1.9.03,1.38.01,2.77.02,4.15,0,.34-.01.69.09,1.03.22.74.43.88,1.21.76.22-.04.43-.26.73.02-.7.6-1.58.82-2.38,1.15-.36.15-.55-.3-.72-.61-.15-.28-.1-.73-.59-.74.65-.7.37-1.56.39-2.37,0-.26-.2-.38-.42-.3-.78.27-1.61.45-2.28.96-.4.3-.66.72-.5,1.26.18.59.59.87,1.24.88.32,0,.62-.05.9-.2.21-.11.42-.25.68-.24Z"/>
      <path class="cls-1" d="M188.54,170.71c-1.26,1.38-2.75,1.63-4.29,1.33-1.51-.29-2.47-1.34-2.94-2.8-.83-2.6.73-5.89,4.17-6.26,1.69-.18,2.87.71,3.03,2.25.08.77-.11,1-.9,1.01-1.35.02-2.7,0-4.06.01-.84,0-.84.03-.86.9-.02,1,.22,1.92.76,2.75.82,1.24,2.48,1.74,3.85,1.18.34-.14.63-.43,1.24-.38ZM182.82,165.82c1.24,0,2.47,0,3.7,0,.25,0,.33-.19.36-.42.14-1.05-.87-2.05-1.92-1.91-1.29.17-1.88.8-2.14,2.34Z"/>
      <path class="cls-1" d="M92.55,170.7c-.53.76-1.22,1.06-1.96,1.26-3.87,1.01-5.93-2.19-5.38-4.99.43-2.22,1.81-3.51,4.01-3.94,1.65-.33,2.85.4,3.24,1.96.23.91,0,1.24-.92,1.26-1.18.02-2.35,0-3.53.01-.24,0-.48,0-.73,0-.33,0-.51.15-.53.49-.07,1.13.08,2.21.71,3.18.78,1.19,2.54,1.7,3.88,1.16.34-.14.63-.43,1.22-.4ZM88.81,165.85h0c.42,0,.83,0,1.25-.01.88-.02,1.09-.31.78-1.16-.23-.63-.65-1.07-1.33-1.19-1.37-.24-2.47.86-2.68,2.03-.05.28.2.33.41.33.52,0,1.04,0,1.56,0Z"/>
      <path class="cls-1" d="M61.8,163.58c.94-.85,2.03-.76,3.09-.37.99.37,1.31,1.28,1.42,2.25.06.49-.24.76-.87.78-.87.03-1.73.01-2.6.01-.55,0-1.11.01-1.66,0-.41,0-.66.13-.65.59.02.69-.01,1.38.22,2.05.75,2.14,2.67,2.96,4.75,2.01.18-.08.34-.26.69-.09-.64.77-1.45,1.14-2.36,1.26-4.13.58-5.73-3.41-4.58-6.07.32-.74.73-1.42,1.36-1.94.35-.29.71-.57,1.21-.51-.4.56-.96,1-1.16,1.7-.09.31-.1.58.32.58,1.11,0,2.22,0,3.33-.01.31,0,.43-.2.41-.48-.05-1.01-.72-2.09-2.08-1.86-.27.04-.54.11-.82.09Z"/>
      <path class="cls-1" d="M307.77,163.58c.77-.67,2.23-.86,3.18-.34.82.45,1.26,1.15,1.2,2.13-.05.74-.1.85-.83.87-1.11.02-2.22,0-3.33.01-.28,0-.56.02-.83,0-.49-.03-.69.2-.67.68.03.66,0,1.31.22,1.95.75,2.14,2.67,2.98,4.73,2.04.18-.08.34-.26.63-.14-.06.42-.4.57-.71.75-1.65.92-3.77.79-4.97-.3-1.51-1.37-1.94-3.4-1.13-5.31.3-.71.71-1.35,1.31-1.84.35-.29.71-.57,1.21-.51-.38.56-.95.99-1.15,1.68-.11.39-.05.6.39.6,1.03,0,2.06-.02,3.09,0,.46,0,.59-.23.57-.64-.05-1.09-1.02-1.89-2.1-1.71-.27.04-.54.06-.81.09Z"/>
      <path class="cls-1" d="M222,170.82c-.5.73-1.26,1.07-2.05,1.21-2.54.45-4.45-.57-5.07-3.09-.88-3.56,2.08-6.18,4.93-5.97,1.41.1,2.3,1.09,2.24,2.47-.03.65-.13.78-.81.79-1.35.02-2.7,0-4.05.02-.95,0-1.06.08-.95.99.1.85.2,1.7.7,2.46.9,1.38,2.41,1.92,3.96,1.37.32-.11.64-.24.96-.36.02,0,.05.04.13.09ZM218.49,165.85h0c.31,0,.62,0,.94,0,1.22,0,1.42-.38.82-1.48-.15-.28-.36-.49-.64-.66-1.33-.84-2.95.5-3.17,1.67-.05.29.07.47.38.48.55,0,1.11,0,1.66,0Z"/>
      <path class="cls-1" d="M303.36,170.67c-1.19,1.47-2.79,1.69-4.48,1.31-1.69-.39-2.62-1.58-2.97-3.25-.38-1.82.15-3.35,1.57-4.54,1.33-1.12,2.84-1.53,4.55-1.03.34.1.65.24.91.48.45.41.56.85.28,1.17-.27.31-.97.32-1.33,0-.15-.13-.29-.31-.38-.49-.56-1.2-2.7-.93-3.4.03-1.27,1.74-.94,4.91.75,6.25.93.74,2.03.83,3.15.54.46-.12.9-.32,1.34-.48Z"/>
      <path class="cls-1" d="M196.69,170.71c-.72.9-1.54,1.24-2.45,1.38-.27.04-.55.03-.83.01-1.24-.06-1.91-.72-1.93-1.97-.03-1.59,0-3.19,0-4.78q0-1.21-.96-1.77,1.12-.5,2.24-1.82c.23.33.14.68.14,1.01,0,.45.2.61.63.6.62-.02,1.24-.05,1.86-.17.58-.11.88.17.77.64-.07.27-.17.51-.57.43-.68-.13-1.36-.2-2.05-.28-.42-.05-.64.12-.64.58.01,1.7-.03,3.4.02,5.09.03,1.27,1.17,1.94,2.47,1.52.38-.12.7-.41,1.31-.48Z"/>
      <path class="cls-1" d="M254.67,171.72c-1.03.25-4.14.22-4.81-.02.04-.17.19-.16.32-.19.75-.17.97-.35.99-1.08.03-1.7.04-3.4,0-5.09-.02-.97-.39-1.21-1.32-1-.2.05-.4.13-.69-.04.79-.57,1.63-.92,2.49-1.24.3-.11.46.1.56.33.14.31.23.64.36,1,.46-.07.65-.49.96-.73.65-.49,1.31-.96,2.17-.5.18.1.35.22.49.37.21.23.22.5.08.77-.13.24-.36.3-.61.31-.35.02-.57-.2-.84-.36-.69-.39-.9-.35-1.48.14-.54.45-.8.97-.76,1.71.06,1.31,0,2.63.02,3.95,0,1.15.21,1.35,1.4,1.45.17.01.34.04.51.07.03,0,.05.04.18.14Z"/>
      <path class="cls-1" d="M105.98,163.57c1.17-.14,1.87-.72,2.16-1.85.42.37.26.77.28,1.11.02.39.18.58.57.56.55-.03,1.11-.05,1.66-.09.2-.01.41-.09.61-.08.34.02.47.26.45.58-.01.3-.2.44-.48.41-.58-.06-1.16-.17-1.75-.2-1.05-.05-1.06-.04-1.06.98,0,1.39-.01,2.77,0,4.16.02,1.87,1.15,2.62,2.89,1.91.13-.05.24-.14.36-.2.12-.06.23-.18.42,0-.47.69-1.2.96-1.94,1.18-.54.16-1.11.13-1.65.03-.86-.15-1.34-.77-1.35-1.69-.02-1.66-.03-3.33,0-4.99.02-.87-.11-1.58-1.18-1.81Z"/>
      <path class="cls-1" d="M38.63,171.87c-1.45.02-2.79.02-4.21,0,.11-.2.13-.3.17-.31,1.16-.25,1.22-.31,1.23-1.5,0-1.25,0-2.49,0-3.74,0-2.31-1.43-2.83-3.34-2.06-.24.1-.44.35-.83.23.49-.97,1.35-1.32,2.3-1.52.17-.04.34-.02.52-.02,1.78-.02,2.7.83,2.75,2.61.03,1.14,0,2.28,0,3.43,0,.45,0,.9,0,1.35.03.86.14.99.98,1.17.13.03.27.02.42.37Z"/>
      <path class="cls-1" d="M260.94,164.61c.77-1.28,2.55-2,3.88-1.54.56.19,1.06.47,1.29,1.08.1.25.18.52.44.67l.02.02c-.18.49-.22,1-.21,1.52.02,1.04,0,2.08,0,3.12,0,1.01-.09,2.06,1.54,2.16-.98.3-3.23.31-4.11.1.02-.06.03-.16.07-.16,1.09-.27,1.22-.41,1.23-1.53.01-1.18,0-2.35,0-3.53,0-.1,0-.21,0-.31-.17-2.34-1.62-2.64-3.29-1.9-.28.12-.51.37-.85.32l-.02-.02Z"/>
      <path class="cls-1" d="M266.56,164.81c.72-1.27,2.3-2.06,3.65-1.83,1.18.2,1.93,1.03,1.97,2.31.04,1.24.01,2.49.01,3.74,0,.28,0,.55,0,.83.01,1.33.09,1.44,1.32,1.8-.54.3-2.96.34-3.9.07,0-.03,0-.08.02-.09,1.19-.4,1.31-.53,1.29-1.83-.03-1.41.15-2.83-.14-4.24-.33-1.62-1.33-1.75-2.52-1.5-.63.13-1.04.69-1.67.78,0,0-.02-.02-.02-.02Z"/>
      <path class="cls-1" d="M223.26,164.35c.88-.61,1.81-.88,2.65-1.31.22-.11.37.03.52.21.33.41.1,1.12.75,1.35.01,0,.01.15-.02.18-.57.58-.31,1.32-.33,1.98-.04,1.11-.02,2.22,0,3.32.01.99.37,1.35,1.37,1.42.24.02.49-.06.71.09.02.02.03.05.05.08-.61.27-3.62.31-4.69.07-.04-.21.14-.2.25-.24.78-.27.87-.36.88-1.17.02-1.66.02-3.33,0-4.99-.01-1.05-.34-1.25-1.38-.97-.19.05-.37.23-.75-.03Z"/>
      <path class="cls-1" d="M27.69,164.37c.78-.69,1.72-.92,2.58-1.32.23-.11.44.06.51.24.26.65.59,1.23.47,2.03-.16,1.09-.06,2.21-.06,3.32,0,.55-.01,1.11,0,1.66.03.9.12,1,1.06,1.21.09.02.18.08.28.13-.6.3-3.11.34-4.08.08.03-.06.04-.15.08-.16,1.17-.27,1.23-.32,1.23-1.5,0-1.49,0-2.98,0-4.47,0-1.34-.27-1.53-1.55-1.16-.13.04-.25.14-.53-.06Z"/>
      <path class="cls-1" d="M260.96,164.63c-.23.55-.26,1.13-.25,1.72.02,1.14,0,2.28,0,3.43,0,.88-.15,1.83,1.28,1.92-1.42.22-2.71.19-4.06.16.08-.18.1-.28.13-.29,1.17-.27,1.23-.33,1.23-1.49,0-1.49,0-2.98,0-4.46,0-1.38-.32-1.59-1.62-1.16-.13.04-.25.11-.38-.03-.03-.27.2-.34.37-.42.59-.28,1.19-.55,1.79-.82.56-.25.82-.15,1.02.43.12.35.07.77.46,1,0,0,.02.02.02.02Z"/>
      <path class="cls-1" d="M227.61,164.11c.85-1.14,1.41-1.34,2.35-.97.55.22.77.67.55,1.12-.19.38-.67.47-1.17.19-.27-.15-.5-.39-.81-.42-.26-.03-.52.05-.91.09Z"/>
      <path class="cls-1" d="M44.35,170.89c-.08.06-.16.12-.23.18,0,0,0,0,0,0,0-.13.09-.19.19-.22l.05.05Z"/>
    </g>
  </g>
</svg>